<svg width="24" height="24" viewBox="0 0 24 24" fill="none" xmlns="http://www.w3.org/2000/svg">
<path d="M12 7.91665C10.9384 7.91665 8.79171 8.45331 8.79171 9.52665V14.9166H10.5417V20.1666H13.4584V14.9166H15.2084V9.52665C15.2084 8.46498 13.0617 7.91665 12 7.91665ZM12 0.333313C5.54837 0.333313 0.333374 5.54831 0.333374 12C0.333374 18.4516 5.54837 23.6666 12 23.6666C18.4517 23.6666 23.6667 18.44 23.6667 12C23.6667 5.55998 18.44 0.333313 12 0.333313ZM12 21.3333C6.84337 21.3333 2.66671 17.1566 2.66671 12C2.66671 6.84331 6.84337 2.66665 12 2.66665C17.1567 2.66665 21.3334 6.84331 21.3334 12C21.3334 17.1566 17.1567 21.3333 12 21.3333Z" fill="#694ED6"/>
<path d="M12 7.33331C12.9665 7.33331 13.75 6.54981 13.75 5.58331C13.75 4.61681 12.9665 3.83331 12 3.83331C11.0335 3.83331 10.25 4.61681 10.25 5.58331C10.25 6.54981 11.0335 7.33331 12 7.33331Z" fill="#694ED6"/>
</svg>
